<?xml version="1.0" encoding="utf-8"?>
<!-- Svg Vector Icons : http://www.onlinewebfonts.com/icon -->
<!DOCTYPE svg PUBLIC "-//W3C//DTD SVG 1.1//EN" "http://www.w3.org/Graphics/SVG/1.1/DTD/svg11.dtd">
<svg version="1.1" xmlns="http://www.w3.org/2000/svg" xmlns:xlink="http://www.w3.org/1999/xlink" x="0px" y="0px" viewBox="0 0 1000 1000" enable-background="new 0 0 1000 1000" xml:space="preserve">
<metadata> Svg Vector Icons : http://www.onlinewebfonts.com/icon </metadata>
<g><path d="M982.3,945.2L963,925.8l-12.1-12.1L712.7,675.6C851.1,518,845.2,277.9,694.8,127.5c-156.7-156.6-410.6-156.6-567.3,0c-156.6,156.6-156.6,410.6,0,567.3C277.9,845.2,518,851.1,675.6,712.7l238.2,238.2l12.1,12.1l19.3,19.3c5.1,5.1,11.3,7.7,18.6,7.7c7.3,0,13.5-2.6,18.6-7.7c5.1-5.1,7.7-11.3,7.7-18.6C990,956.5,987.4,950.3,982.3,945.2z M164.6,657.7c-136.2-136.2-136.2-357,0-493.1c136.2-136.2,357-136.2,493.1,0c136.2,136.2,136.2,357,0,493.1C521.5,793.9,300.7,793.9,164.6,657.7z"/></g>
</svg>
